<svg width="32" height="32" viewBox="0 0 100 100" fill="none" xmlns="http://www.w3.org/2000/svg">
  <!-- Octagon perimeter lines -->
  <line x1="50" y1="14" x2="75.5" y2="24.5" stroke="#BEC9D4" stroke-width="1.6" stroke-linecap="round"/>
  <line x1="75.5" y1="24.5" x2="86" y2="50" stroke="#BEC9D4" stroke-width="1.6" stroke-linecap="round"/>
  <line x1="86" y1="50" x2="75.5" y2="75.5" stroke="#BEC9D4" stroke-width="1.6" stroke-linecap="round"/>
  <line x1="75.5" y1="75.5" x2="50" y2="86" stroke="#BEC9D4" stroke-width="1.6" stroke-linecap="round"/>
  <line x1="50" y1="86" x2="24.5" y2="75.5" stroke="#BEC9D4" stroke-width="1.6" stroke-linecap="round"/>
  <line x1="24.5" y1="75.5" x2="14" y2="50" stroke="#BEC9D4" stroke-width="1.6" stroke-linecap="round"/>
  <line x1="14" y1="50" x2="24.5" y2="24.5" stroke="#BEC9D4" stroke-width="1.6" stroke-linecap="round"/>
  <line x1="24.5" y1="24.5" x2="50" y2="14" stroke="#BEC9D4" stroke-width="1.6" stroke-linecap="round"/>
  <!-- Spoke lines -->
  <line x1="50" y1="50" x2="50" y2="14" stroke="#BEC9D4" stroke-width="1.6" stroke-linecap="round"/>
  <line x1="50" y1="50" x2="75.5" y2="24.5" stroke="#BEC9D4" stroke-width="1.6" stroke-linecap="round"/>
  <line x1="50" y1="50" x2="86" y2="50" stroke="#BEC9D4" stroke-width="1.6" stroke-linecap="round"/>
  <line x1="50" y1="50" x2="75.5" y2="75.5" stroke="#BEC9D4" stroke-width="1.6" stroke-linecap="round"/>
  <line x1="50" y1="50" x2="50" y2="86" stroke="#BEC9D4" stroke-width="1.6" stroke-linecap="round"/>
  <line x1="50" y1="50" x2="24.5" y2="75.5" stroke="#BEC9D4" stroke-width="1.6" stroke-linecap="round"/>
  <line x1="50" y1="50" x2="14" y2="50" stroke="#BEC9D4" stroke-width="1.6" stroke-linecap="round"/>
  <line x1="50" y1="50" x2="24.5" y2="24.5" stroke="#BEC9D4" stroke-width="1.6" stroke-linecap="round"/>
  <!-- Outer nodes -->
  <circle cx="50" cy="14" r="4.5" fill="#354D6A"/>
  <circle cx="75.5" cy="24.5" r="4.5" fill="#354D6A"/>
  <circle cx="86" cy="50" r="4.5" fill="#354D6A"/>
  <circle cx="75.5" cy="75.5" r="4.5" fill="#354D6A"/>
  <circle cx="50" cy="86" r="4.5" fill="#354D6A"/>
  <circle cx="24.5" cy="75.5" r="4.5" fill="#354D6A"/>
  <circle cx="14" cy="50" r="4.5" fill="#354D6A"/>
  <circle cx="24.5" cy="24.5" r="4.5" fill="#354D6A"/>
  <!-- Center hub — green -->
  <circle cx="50" cy="50" r="6.5" fill="#8DC63F"/>
</svg>
